<svg width="767" height="608" viewBox="0 0 767 608" fill="none" xmlns="http://www.w3.org/2000/svg">
<line y1="-1.5" x2="221.247" y2="-1.5" transform="matrix(0.662884 -0.748722 0.927518 0.373778 19.7829 187.664)" stroke="#2CCCFF" stroke-width="3"/>
<line y1="-1.5" x2="221.247" y2="-1.5" transform="matrix(0.662884 -0.748722 0.927518 0.373778 364.668 191.956)" stroke="#2CCCFF" stroke-width="3"/>
<line y1="-1.5" x2="221.247" y2="-1.5" transform="matrix(0.662884 -0.748722 0.927518 0.373778 125.591 266.137)" stroke="#2CCCFF" stroke-width="3"/>
<line y1="-1.5" x2="221.247" y2="-1.5" transform="matrix(0.662884 -0.748722 0.927518 0.373778 470.475 270.429)" stroke="#2CCCFF" stroke-width="3"/>
<line y1="-1.5" x2="171.741" y2="-1.5" transform="matrix(-0.658415 0.752655 -0.892993 -0.450071 114.283 403.044)" stroke="#2CCCFF" stroke-width="3"/>
<line y1="-1.5" x2="221.247" y2="-1.5" transform="matrix(-0.662884 0.748722 -0.927518 -0.373778 459.168 407.336)" stroke="#2CCCFF" stroke-width="3"/>
<line y1="-1.5" x2="221.247" y2="-1.5" transform="matrix(-0.662884 0.748722 -0.927518 -0.373778 354.975 328.25)" stroke="#2CCCFF" stroke-width="3"/>
<line y1="-1.5" x2="339.175" y2="-1.5" transform="matrix(0.67533 -0.737515 0.923036 0.384714 19.7829 252.147)" stroke="#2CCCFF" stroke-width="3"/>
<line y1="-1.5" x2="339.175" y2="-1.5" transform="matrix(0.67533 -0.737515 0.923036 0.384714 364.668 256.438)" stroke="#2CCCFF" stroke-width="3"/>
<line y1="-1.5" x2="339.175" y2="-1.5" transform="matrix(0.67533 -0.737515 0.923036 0.384714 125.591 330.62)" stroke="#2CCCFF" stroke-width="3"/>
<line y1="-1.5" x2="339.175" y2="-1.5" transform="matrix(0.67533 -0.737515 0.923036 0.384714 470.475 334.911)" stroke="#2CCCFF" stroke-width="3"/>
<line y1="-1.5" x2="171.824" y2="-1.5" transform="matrix(-0.658099 0.752932 -0.893146 -0.449766 114.283 338.562)" stroke="#2CCCFF" stroke-width="3"/>
<line y1="-1.5" x2="339.175" y2="-1.5" transform="matrix(-0.67533 0.737515 -0.923036 -0.384714 459.168 342.853)" stroke="#2CCCFF" stroke-width="3"/>
<line y1="-1.5" x2="339.175" y2="-1.5" transform="matrix(-0.67533 0.737515 -0.923036 -0.384714 354.975 263.767)" stroke="#2CCCFF" stroke-width="3"/>
<line y1="-1.5" x2="401.153" y2="-1.5" transform="matrix(0.66958 -0.74274 0.925143 0.379619 37.9097 299.952)" stroke="#2CCCFF" stroke-width="3"/>
<line y1="-1.5" x2="401.153" y2="-1.5" transform="matrix(0.66958 -0.74274 0.925143 0.379619 382.794 304.244)" stroke="#2CCCFF" stroke-width="3"/>
<line y1="-1.5" x2="401.153" y2="-1.5" transform="matrix(0.66958 -0.74274 0.925143 0.379619 143.717 378.425)" stroke="#2CCCFF" stroke-width="3"/>
<line y1="-1.5" x2="401.153" y2="-1.5" transform="matrix(0.66958 -0.74274 0.925143 0.379619 488.602 382.717)" stroke="#2CCCFF" stroke-width="3"/>
<line y1="-1.5" x2="146.978" y2="-1.5" transform="matrix(-0.646016 0.763324 -0.898841 -0.438275 96.1563 290.756)" stroke="#2CCCFF" stroke-width="3"/>
<line y1="-1.5" x2="401.153" y2="-1.5" transform="matrix(-0.66958 0.74274 -0.925143 -0.379619 441.041 295.048)" stroke="#2CCCFF" stroke-width="3"/>
<line y1="-1.5" x2="401.153" y2="-1.5" transform="matrix(-0.66958 0.74274 -0.925143 -0.379619 336.849 215.962)" stroke="#2CCCFF" stroke-width="3"/>
<rect width="599.159" height="764.664" transform="matrix(0.00301825 0.999995 -0.999996 0.00299288 764.66 6)" fill="url(#paint0_linear_5_6382)"/>
<defs>
<linearGradient id="paint0_linear_5_6382" x1="599.159" y1="382.332" x2="-374.87" y2="382.332" gradientUnits="userSpaceOnUse">
<stop offset="0.239583" stop-color="#151515"/>
<stop offset="1" stop-color="#151515" stop-opacity="0"/>
</linearGradient>
</defs>
</svg>
