<svg width="254" height="607" viewBox="0 0 254 607" fill="none" xmlns="http://www.w3.org/2000/svg">
<g clip-path="url(#clip0_5_6350)">
<path d="M127 0C61.312 0 8 53.312 8 119C8 184.688 61.312 238 127 238C192.688 238 246 184.688 246 119C246 53.312 192.688 0 127 0ZM127 5.95C189.472 5.95 240.05 56.528 240.05 119C240.05 181.472 189.472 232.05 127 232.05C64.528 232.05 13.95 181.472 13.95 119C13.95 56.528 64.528 5.95 127 5.95ZM88.325 59.5C83.2675 59.5 79.4 63.3675 79.4 68.425V74.375C79.4 76.755 80.2925 78.8375 81.78 80.325C80.2925 81.8125 79.4 83.895 79.4 86.275V92.225C79.4 94.605 80.2925 96.6875 81.78 98.175C80.2925 99.6625 79.4 101.745 79.4 104.125V110.075C79.4 111.265 79.6975 112.455 79.995 113.645C66.31 116.025 55.6 128.222 55.6 142.8C55.6 159.162 68.9875 172.55 85.35 172.55H189.475C194.532 172.55 198.4 168.682 198.4 163.625V110.075C198.4 105.017 194.532 101.15 189.475 101.15H132.355C132.057 99.96 131.462 99.0675 130.57 98.175C132.057 96.6875 132.95 94.605 132.95 92.225V86.275C132.95 83.895 132.057 81.8125 130.57 80.325C132.057 78.8375 132.95 76.755 132.95 74.375V68.425C132.95 63.3675 129.082 59.5 124.025 59.5H88.325ZM88.325 65.45H124.025C125.81 65.45 127 66.64 127 68.425V74.375C127 75.8625 125.81 77.35 124.025 77.35H88.325C86.8375 77.35 85.35 75.8625 85.35 74.375V68.425C85.35 66.64 86.54 65.45 88.325 65.45ZM88.325 83.3H124.025C125.512 83.3 127 84.7875 127 86.275V92.225C127 94.01 125.81 95.2 124.025 95.2H88.325C86.54 95.2 85.35 94.01 85.35 92.225V86.275C85.35 84.7875 86.54 83.3 88.325 83.3ZM88.325 101.15H124.025C125.81 101.15 127 102.34 127 104.125V110.075C127 111.86 125.81 113.05 124.025 113.05H88.325C86.54 113.05 85.35 111.86 85.35 110.075V104.125C85.35 102.34 86.54 101.15 88.325 101.15ZM132.95 107.1H189.475C191.26 107.1 192.45 108.29 192.45 110.075V163.625C192.45 165.41 191.26 166.6 189.475 166.6H132.355C132.652 165.707 132.95 164.815 132.95 163.625V160.65H174.6C175.492 160.65 176.087 160.352 176.682 159.757C177.277 159.162 177.575 158.567 177.575 157.675C177.575 154.402 180.252 151.725 183.525 151.725C185.31 151.725 186.5 150.535 186.5 148.75V124.95C186.5 124.057 186.202 123.462 185.607 122.867C185.012 122.272 184.417 121.975 183.525 121.975C180.252 121.975 177.575 119.297 177.575 116.025C177.575 114.24 176.385 113.05 174.6 113.05H132.355C132.652 112.157 132.95 110.967 132.95 110.075V107.1ZM85.35 119C98.44 119 109.15 129.71 109.15 142.8C109.15 155.89 98.44 166.6 85.35 166.6C72.26 166.6 61.55 155.89 61.55 142.8C61.55 129.71 72.26 119 85.35 119ZM103.2 119H124.025C125.512 119 127 120.487 127 121.975V127.925C127 129.71 125.81 130.9 124.025 130.9H112.72C110.637 126.14 107.365 121.975 103.2 119ZM132.355 119H171.922C173.112 123.165 176.385 126.438 180.55 127.628V146.072C176.385 147.262 173.112 150.535 171.922 154.7H132.355C132.057 154.105 132.057 153.807 131.76 153.51C132.95 152.617 134.14 151.725 134.735 150.237C141.28 149.345 146.337 143.692 146.337 137.147C146.337 129.71 140.387 123.76 132.95 123.76V121.975C132.95 121.082 132.652 119.892 132.355 119ZM85.35 124.95C83.565 124.95 82.375 126.14 82.375 127.925V128.52C78.805 129.71 76.425 132.982 76.425 136.85C76.425 141.907 80.2925 145.775 85.35 145.775C86.8375 145.775 88.325 147.262 88.325 148.75C88.325 150.237 87.135 151.725 85.35 151.725C83.8625 151.725 82.375 150.237 82.375 148.75C82.375 146.965 81.185 145.775 79.4 145.775C77.615 145.775 76.425 146.965 76.425 148.75C76.425 152.617 78.805 155.89 82.375 157.08V157.675C82.375 159.46 83.8625 160.65 85.35 160.65C87.135 160.65 88.325 159.46 88.325 157.675V157.08C91.895 155.89 94.275 152.617 94.275 148.75C94.275 143.692 90.4075 139.825 85.35 139.825C83.8625 139.825 82.375 138.337 82.375 136.85C82.375 135.362 83.565 133.875 85.35 133.875C86.8375 133.875 88.325 135.362 88.325 136.85C88.325 138.635 89.515 139.825 91.3 139.825C93.085 139.825 94.275 138.635 94.275 136.85C94.275 132.982 91.895 129.71 88.325 128.52V127.925C88.325 126.14 87.135 124.95 85.35 124.95ZM132.95 129.412H133.247C137.412 129.412 140.685 132.685 140.685 136.85C140.685 139.825 138.9 142.502 136.222 143.692V139.825C135.925 136.552 134.14 133.875 131.76 132.387C132.355 131.495 132.652 130.602 132.95 129.412ZM168.65 130.9C167.072 130.9 165.559 131.527 164.443 132.643C163.327 133.759 162.7 135.272 162.7 136.85C162.7 138.428 163.327 139.941 164.443 141.057C165.559 142.173 167.072 142.8 168.65 142.8C170.228 142.8 171.741 142.173 172.857 141.057C173.973 139.941 174.6 138.428 174.6 136.85C174.6 135.272 173.973 133.759 172.857 132.643C171.741 131.527 170.228 130.9 168.65 130.9ZM114.505 136.85H127C128.785 136.85 129.975 138.04 129.975 139.825V145.775C129.975 147.56 128.785 148.75 127 148.75H114.505C114.802 146.965 115.1 144.882 115.1 142.8C115.1 140.717 114.802 138.635 114.505 136.85ZM112.72 154.7H124.025C125.512 154.7 127 156.187 127 157.675V163.625C127 165.41 125.81 166.6 124.025 166.6H103.2C107.365 163.625 110.637 159.46 112.72 154.7Z" fill="white"/>
</g>
<path fill-rule="evenodd" clip-rule="evenodd" d="M92.0315 388C74.8569 388 60.2912 398.953 54.6403 414.195C47.2369 414.672 40.113 417.202 34.068 421.503C28.023 425.804 23.2961 431.703 20.4178 438.541C17.5659 445.375 16.8265 452.694 17.8617 459.729C11.0537 465.281 5.88022 472.576 2.89279 480.837C-0.0946516 489.098 -0.783986 498.015 0.898285 506.637C3.0888 517.719 9.07216 527.692 17.8194 534.84C16.8936 541.122 17.4811 547.534 19.5332 553.543C21.5854 559.553 25.0427 564.986 29.6177 569.39C36.4201 575.877 45.2911 579.758 54.672 580.353C57.7967 588.845 63.7116 596.024 71.4485 600.716C79.1853 605.408 88.2857 607.334 97.26 606.179C103.382 605.358 109.23 603.128 114.345 599.666C119.46 596.205 123.702 591.604 126.74 586.226C129.777 591.604 134.02 596.205 139.135 599.666C144.25 603.128 150.098 605.358 156.22 606.179C165.194 607.334 174.294 605.408 182.031 600.716C189.768 596.024 195.683 588.845 198.808 580.353C208.188 579.757 217.059 575.876 223.862 569.39C228.437 564.986 231.894 559.553 233.947 553.543C235.999 547.534 236.586 541.122 235.66 534.84C244.408 527.692 250.391 517.719 252.582 506.637C254.264 498.015 253.574 489.098 250.587 480.837C247.6 472.576 242.426 465.281 235.618 459.729C236.714 452.565 235.83 445.238 233.062 438.541C230.186 431.704 225.461 425.805 219.417 421.504C213.374 417.204 206.252 414.673 198.85 414.195C196.036 406.532 190.943 399.915 184.257 395.232C177.571 390.549 169.611 388.026 161.448 388C146.513 388 133.606 396.333 126.74 408.501C119.874 396.333 106.967 388 92.0315 388ZM92.0315 398.563C95.8954 398.549 99.7239 399.298 103.297 400.769C106.87 402.239 110.117 404.402 112.852 407.132C115.587 409.861 117.755 413.104 119.232 416.674C120.709 420.245 121.466 424.073 121.459 427.937C121.455 428.053 121.455 428.169 121.459 428.285V566.57C121.459 581.357 110.558 593.767 95.8763 595.7C89.7855 596.509 83.5944 595.387 78.1751 592.491C72.7558 589.596 68.3812 585.074 65.6675 579.561C66.333 579.424 67.009 579.35 67.6744 579.171C69.0289 578.809 70.1843 577.924 70.8865 576.711C71.5887 575.497 71.7802 574.055 71.4188 572.701C71.0574 571.346 70.1728 570.191 68.9595 569.489C67.7463 568.787 66.3037 568.595 64.9493 568.956C60.6396 570.129 56.119 570.301 51.7327 569.459C47.3464 568.618 43.2104 566.785 39.6407 564.101C36.071 561.416 33.1618 557.951 31.1355 553.971C29.1092 549.991 28.0192 545.6 27.9488 541.134C30.5472 542.36 33.2301 543.448 36.0608 544.198C37.4051 544.533 38.8272 544.327 40.0205 543.623C41.2139 542.919 42.083 541.774 42.4404 540.436C42.7979 539.097 42.6151 537.672 41.9315 536.467C41.248 535.262 40.1183 534.374 38.786 533.994C31.9066 532.161 25.6797 528.435 20.8135 523.238C15.9474 518.041 12.6374 511.584 11.2601 504.599C10.0744 498.589 10.3611 492.381 12.0956 486.506C13.8301 480.632 16.9609 475.265 21.2205 470.863C23.1535 474.982 25.7096 478.847 29.0368 482.164C29.5233 482.669 30.1054 483.072 30.7494 483.35C31.3933 483.628 32.0861 483.775 32.7873 483.782C33.4885 483.789 34.1841 483.656 34.8335 483.391C35.4829 483.127 36.0731 482.735 36.5696 482.24C37.0662 481.745 37.4591 481.156 37.7256 480.507C37.9921 479.858 38.1267 479.163 38.1216 478.462C38.1165 477.761 37.9719 477.068 37.696 476.424C37.4202 475.779 37.0187 475.195 36.515 474.707C32.6988 470.902 30.0046 466.119 28.7282 460.883C27.4518 455.647 27.6426 450.161 29.2795 445.026C30.9164 439.892 33.9363 435.308 38.0076 431.777C42.0789 428.246 47.0443 425.904 52.3588 425.01C52.2849 425.992 52.0419 426.933 52.0419 427.937C52.0419 429.338 52.5983 430.681 53.5888 431.671C54.5792 432.661 55.9225 433.218 57.3232 433.218C58.7238 433.218 60.0671 432.661 61.0576 431.671C62.048 430.681 62.6044 429.338 62.6044 427.937C62.5974 424.073 63.3542 420.245 64.8312 416.674C66.3083 413.104 68.4764 409.861 71.2111 407.132C73.9457 404.402 77.1929 402.239 80.766 400.769C84.3391 399.298 88.1677 398.549 92.0315 398.563ZM161.448 398.563C165.313 398.549 169.142 399.298 172.715 400.769C176.289 402.239 179.537 404.401 182.272 407.13C185.008 409.86 187.177 413.104 188.655 416.674C190.133 420.245 190.892 424.073 190.886 427.937C190.886 429.338 191.442 430.681 192.433 431.671C193.423 432.661 194.767 433.218 196.167 433.218C197.568 433.218 198.911 432.661 199.902 431.671C200.892 430.681 201.448 429.338 201.448 427.937C201.448 426.933 201.216 425.992 201.132 425.01C206.444 425.908 211.407 428.25 215.475 431.782C219.544 435.313 222.562 439.897 224.199 445.03C225.835 450.163 226.027 455.648 224.753 460.883C223.479 466.118 220.788 470.901 216.975 474.707C216.451 475.189 216.03 475.772 215.737 476.421C215.443 477.07 215.284 477.771 215.269 478.483C215.254 479.195 215.383 479.902 215.648 480.562C215.913 481.223 216.309 481.824 216.812 482.328C217.315 482.831 217.915 483.228 218.575 483.494C219.236 483.761 219.943 483.89 220.655 483.876C221.367 483.862 222.068 483.703 222.717 483.411C223.367 483.118 223.95 482.698 224.432 482.174C227.675 478.89 230.32 475.066 232.249 470.873C236.509 475.273 239.64 480.639 241.377 486.512C243.113 492.385 243.402 498.59 242.22 504.599C240.842 511.584 237.532 518.041 232.666 523.238C227.8 528.435 221.573 532.161 214.694 533.994C214.023 534.173 213.394 534.482 212.843 534.904C212.292 535.326 211.829 535.853 211.482 536.454C210.78 537.667 210.588 539.109 210.949 540.464C211.311 541.818 212.195 542.973 213.409 543.676C214.622 544.378 216.064 544.57 217.419 544.208C220.26 543.448 222.933 542.36 225.531 541.134C225.46 545.6 224.37 549.991 222.344 553.971C220.317 557.952 217.409 561.417 213.839 564.102C210.27 566.787 206.134 568.621 201.748 569.464C197.362 570.307 192.841 570.137 188.531 568.967C187.854 568.766 187.143 568.704 186.442 568.782C185.74 568.861 185.061 569.079 184.445 569.424C183.829 569.77 183.289 570.236 182.856 570.794C182.424 571.352 182.107 571.99 181.926 572.672C181.744 573.355 181.701 574.067 181.8 574.766C181.898 575.465 182.135 576.137 182.498 576.743C182.861 577.349 183.341 577.876 183.911 578.293C184.481 578.71 185.129 579.008 185.816 579.171C186.471 579.35 187.147 579.424 187.812 579.561C185.099 585.074 180.724 589.596 175.305 592.491C169.885 595.387 163.694 596.509 157.604 595.7C150.525 594.788 144.022 591.327 139.313 585.964C134.604 580.602 132.011 573.707 132.021 566.57V427.937C132.014 424.073 132.771 420.245 134.248 416.674C135.725 413.104 137.893 409.861 140.628 407.132C143.362 404.402 146.61 402.239 150.183 400.769C153.756 399.298 157.584 398.549 161.448 398.563ZM91.5034 405.321C90.1027 405.391 88.7873 406.016 87.8463 407.056C86.9054 408.096 86.4162 409.466 86.4862 410.867C86.5563 412.268 87.1798 413.584 88.2198 414.525C89.2597 415.466 90.6309 415.954 92.0315 415.884C98.7704 415.884 104.104 421.219 104.104 427.937C104.104 429.338 104.661 430.681 105.651 431.671C106.642 432.661 107.985 433.218 109.386 433.218C110.786 433.218 112.13 432.661 113.12 431.671C114.111 430.681 114.667 429.338 114.667 427.937C114.639 421.945 112.244 416.207 108.005 411.973C103.765 407.739 98.0234 405.352 92.0315 405.333C91.8556 405.324 91.6793 405.324 91.5034 405.333V405.321ZM161.448 405.321C155.455 405.341 149.712 407.729 145.472 411.966C141.231 416.202 138.838 421.943 138.813 427.937C138.813 429.338 139.369 430.681 140.36 431.671C141.35 432.661 142.693 433.218 144.094 433.218C145.495 433.218 146.838 432.661 147.829 431.671C148.819 430.681 149.375 429.338 149.375 427.937C149.375 421.219 154.709 415.896 161.448 415.896C162.849 415.896 164.192 415.339 165.183 414.348C166.173 413.358 166.73 412.015 166.73 410.614C166.73 409.214 166.173 407.869 165.183 406.879C164.192 405.889 162.849 405.333 161.448 405.333V405.321ZM59.8687 438.668C59.0254 438.659 58.1922 438.851 57.4389 439.23C56.6855 439.61 56.0339 440.165 55.5385 440.847C55.0432 441.53 54.7185 442.32 54.5916 443.154C54.4647 443.988 54.5394 444.84 54.8093 445.639C55.5381 447.804 56.4465 449.875 57.5133 451.871C53.0547 451.392 48.5512 451.53 44.1306 452.283C43.4189 452.375 42.7334 452.611 42.116 452.976C41.4985 453.342 40.9619 453.829 40.5391 454.409C40.1163 454.989 39.816 455.648 39.6567 456.348C39.4974 457.048 39.4823 457.773 39.6123 458.478C39.7424 459.184 40.0149 459.855 40.4132 460.452C40.8115 461.049 41.3273 461.558 41.929 461.949C42.5307 462.34 43.2058 462.604 43.913 462.725C44.6203 462.847 45.3448 462.824 46.0424 462.656C54.9572 461.019 64.136 462.655 71.9839 467.134C72.0535 467.17 72.124 467.206 72.1952 467.239C72.2299 467.275 72.2651 467.31 72.3008 467.345C72.4183 467.406 72.5381 467.462 72.6599 467.514C72.7986 467.569 72.9396 467.619 73.0824 467.662C73.1276 467.698 73.1734 467.734 73.2197 467.768C73.2998 467.805 73.3808 467.841 73.4627 467.874C73.5811 467.913 73.7009 467.947 73.8218 467.978C73.989 468.022 74.1582 468.057 74.3288 468.084C74.5047 468.093 74.681 468.093 74.8569 468.084C74.9836 468.089 75.1105 468.089 75.2372 468.084C75.5884 468.048 75.9352 467.979 76.2723 467.874C76.3216 467.874 76.3709 467.874 76.4202 467.874C76.7048 467.774 76.9805 467.65 77.244 467.504C77.2868 467.469 77.3291 467.434 77.3708 467.398C77.4791 467.328 77.5848 467.254 77.6877 467.176C77.7234 467.142 77.7586 467.106 77.7933 467.071C77.9019 466.994 78.0076 466.912 78.1102 466.827C78.1459 466.792 78.1811 466.758 78.2158 466.722C78.3144 466.631 78.4096 466.535 78.501 466.436C78.5296 466.401 78.5578 466.366 78.5855 466.33C78.9137 465.972 79.1909 465.572 79.4094 465.138C79.4164 465.138 79.4234 465.138 79.4305 465.138C79.4449 465.103 79.459 465.067 79.4727 465.032C79.6034 464.753 79.7094 464.463 79.7896 464.166C79.8007 464.123 79.8112 464.082 79.8213 464.039C79.8544 463.91 79.8826 463.78 79.9058 463.649C79.9133 463.606 79.9204 463.563 79.9269 463.521C79.9683 463.213 79.9824 462.903 79.9692 462.593C79.9697 462.55 79.9697 462.507 79.9692 462.465C79.9607 462.324 79.9467 462.183 79.9269 462.043C79.9203 462.004 79.9133 461.965 79.9058 461.926C79.8826 461.795 79.8544 461.664 79.8213 461.535C79.8077 461.493 79.7937 461.451 79.779 461.409C79.7483 461.284 79.7131 461.161 79.6734 461.039C79.6599 460.996 79.6458 460.955 79.6312 460.912C79.5831 460.787 79.5302 460.664 79.4727 460.542C79.4522 460.5 79.431 460.458 79.4094 460.416C79.3504 460.298 79.287 460.182 79.2192 460.068C79.1985 460.033 79.1774 459.997 79.1559 459.962C79.086 459.85 79.012 459.741 78.934 459.635C78.8002 459.46 78.6555 459.295 78.501 459.138C78.4165 459.04 78.3284 458.945 78.2369 458.853C78.2022 458.818 78.167 458.782 78.1313 458.748C78.0288 458.663 77.9231 458.581 77.8144 458.504C77.7797 458.468 77.7445 458.433 77.7088 458.398C77.6057 458.324 77.5 458.253 77.3919 458.187C71.4769 454.564 67.0407 448.988 64.8437 442.418C64.4971 441.37 63.8308 440.457 62.9385 439.807C62.0461 439.157 60.9726 438.803 59.8687 438.795V438.668ZM193.611 438.668C192.509 438.679 191.438 439.033 190.548 439.683C189.657 440.333 188.993 441.244 188.647 442.29C186.452 448.858 182.008 454.44 176.098 458.05C176.049 458.084 175.999 458.12 175.951 458.156C175.887 458.19 175.823 458.225 175.76 458.262C175.725 458.296 175.69 458.332 175.655 458.367C175.55 458.444 175.448 458.525 175.349 458.61C175.313 458.644 175.278 458.68 175.243 458.715C175.151 458.807 175.063 458.902 174.979 459C174.774 459.21 174.587 459.437 174.419 459.677C174.372 459.747 174.326 459.816 174.282 459.887C174.23 459.971 174.181 460.056 174.134 460.141C174.105 460.197 174.076 460.254 174.049 460.31C174.013 460.38 173.977 460.451 173.944 460.522C173.901 460.633 173.862 460.746 173.828 460.86C173.82 460.86 173.813 460.86 173.806 460.86C173.767 460.978 173.732 461.098 173.701 461.219C173.66 461.359 173.625 461.499 173.595 461.641C173.587 461.69 173.58 461.74 173.574 461.789C173.558 461.87 173.544 461.95 173.532 462.032C173.523 462.112 173.516 462.194 173.511 462.275C173.51 462.318 173.51 462.359 173.511 462.402C173.499 462.741 173.52 463.08 173.574 463.415C173.58 463.465 173.587 463.514 173.595 463.563C173.614 463.659 173.635 463.754 173.659 463.848C173.672 463.891 173.686 463.934 173.701 463.976C173.785 464.311 173.902 464.635 174.049 464.947C174.056 464.947 174.063 464.947 174.07 464.947C174.078 464.947 174.085 464.947 174.092 464.947C174.306 465.368 174.576 465.759 174.894 466.109C174.922 466.144 174.95 466.18 174.979 466.214C175.07 466.313 175.165 466.409 175.264 466.501C175.299 466.536 175.334 466.57 175.37 466.605C175.472 466.69 175.578 466.772 175.687 466.849C175.721 466.884 175.756 466.92 175.792 466.954C175.895 467.029 176.001 467.099 176.109 467.166C176.151 467.202 176.193 467.237 176.236 467.272C176.551 467.446 176.884 467.587 177.229 467.693C177.684 467.837 178.156 467.92 178.633 467.937C178.676 467.937 178.718 467.937 178.76 467.937C178.89 467.942 179.021 467.942 179.151 467.937C179.197 467.938 179.243 467.938 179.288 467.937C179.413 467.906 179.536 467.871 179.658 467.831C179.707 467.832 179.757 467.832 179.806 467.831C179.93 467.801 180.054 467.765 180.176 467.726C180.225 467.726 180.274 467.726 180.323 467.726C180.734 467.598 181.128 467.42 181.496 467.197H181.58C181.594 467.197 181.609 467.197 181.623 467.197C189.438 462.727 198.582 461.167 207.437 462.792C208.129 462.942 208.843 462.951 209.538 462.819C210.233 462.688 210.894 462.417 211.482 462.025C212.071 461.633 212.575 461.127 212.964 460.536C213.353 459.945 213.619 459.282 213.747 458.586C213.875 457.891 213.862 457.178 213.709 456.487C213.556 455.797 213.266 455.144 212.856 454.568C212.445 453.991 211.924 453.503 211.321 453.132C210.719 452.762 210.048 452.516 209.349 452.409C204.929 451.656 200.425 451.518 195.967 451.998C197.023 450.012 197.942 447.942 198.66 445.766C198.93 444.968 199.004 444.117 198.878 443.284C198.752 442.451 198.428 441.66 197.934 440.978C197.44 440.295 196.789 439.742 196.037 439.362C195.285 438.982 194.454 438.787 193.611 438.795V438.668ZM96.3938 455.082C95.4781 455.117 94.5873 455.39 93.8091 455.874C93.0308 456.357 92.3918 457.036 91.9549 457.841C91.518 458.647 91.2983 459.553 91.3173 460.469C91.3363 461.385 91.5933 462.28 92.0632 463.067C97.7459 472.911 96.1192 485.248 88.0706 493.286C87.0761 494.276 86.5158 495.622 86.5128 497.025C86.5098 498.429 87.0645 499.775 88.0548 500.769C89.045 501.764 90.3898 502.325 91.7932 502.328C93.1967 502.331 94.5438 501.776 95.5383 500.786C101.083 495.244 104.646 488.028 105.673 480.256C106.701 472.483 105.136 464.589 101.221 457.796C100.746 456.941 100.044 456.236 99.1917 455.756C98.3395 455.277 97.3709 455.043 96.3938 455.082ZM156.558 455.082C155.672 455.135 154.813 455.41 154.062 455.883C153.311 456.355 152.69 457.01 152.259 457.786C148.344 464.578 146.779 472.473 147.807 480.245C148.834 488.017 152.396 495.234 157.942 500.776C158.433 501.266 159.017 501.655 159.659 501.92C160.301 502.184 160.988 502.32 161.683 502.319C162.377 502.318 163.065 502.18 163.706 501.913C164.347 501.646 164.929 501.256 165.42 500.764C165.91 500.273 166.299 499.69 166.564 499.048C166.828 498.406 166.964 497.718 166.963 497.024C166.962 496.329 166.825 495.642 166.558 495.001C166.291 494.36 165.901 493.776 165.409 493.286C161.503 489.397 158.994 484.325 158.274 478.86C157.553 473.396 158.662 467.846 161.427 463.077C161.9 462.29 162.159 461.394 162.179 460.477C162.199 459.559 161.98 458.651 161.543 457.844C161.106 457.037 160.466 456.358 159.686 455.874C158.906 455.389 158.014 455.116 157.097 455.082C156.917 455.073 156.737 455.073 156.558 455.082ZM23.2063 495.42C22.4256 495.48 21.6682 495.714 20.9889 496.103C20.3096 496.493 19.7253 497.028 19.2785 497.671C18.8316 498.314 18.5333 499.049 18.4052 499.822C18.2771 500.594 18.3223 501.385 18.5377 502.137C20.1643 508.179 23.3647 513.694 27.7904 518.109C28.27 518.644 28.8536 519.075 29.5057 519.376C30.1577 519.678 30.8644 519.843 31.5826 519.862C32.3007 519.881 33.0152 519.754 33.6823 519.487C34.3495 519.221 34.9552 518.821 35.4625 518.313C35.9697 517.804 36.3679 517.196 36.6326 516.528C36.8972 515.86 37.0229 515.146 37.0017 514.428C36.9806 513.71 36.8132 513.003 36.5098 512.352C36.2064 511.701 35.7732 511.119 35.237 510.641C32.1262 507.529 29.8895 503.653 28.7516 499.403C28.4676 498.283 27.8241 497.287 26.9198 496.567C26.0155 495.848 24.9002 495.444 23.745 495.42C23.5655 495.411 23.3857 495.411 23.2063 495.42ZM229.714 495.42C228.562 495.449 227.452 495.855 226.552 496.574C225.652 497.293 225.011 498.286 224.728 499.403C223.587 503.649 221.359 507.535 218.243 510.641C217.707 511.119 217.273 511.701 216.97 512.352C216.667 513.003 216.499 513.71 216.478 514.428C216.457 515.146 216.583 515.86 216.847 516.528C217.112 517.196 217.51 517.804 218.017 518.313C218.525 518.821 219.13 519.221 219.797 519.487C220.465 519.754 221.179 519.881 221.897 519.862C222.615 519.843 223.322 519.678 223.974 519.376C224.626 519.075 225.21 518.644 225.689 518.109C230.126 513.694 233.316 508.179 234.942 502.137C235.167 501.342 235.202 500.505 235.045 499.693C234.887 498.881 234.541 498.118 234.035 497.465C233.528 496.811 232.875 496.285 232.128 495.93C231.381 495.575 230.562 495.4 229.735 495.42C229.728 495.42 229.721 495.42 229.714 495.42ZM83.3914 535.273C83.0861 535.282 82.7822 535.317 82.483 535.379C82.476 535.379 82.469 535.379 82.4619 535.379C81.9591 535.466 81.4717 535.626 81.0148 535.853C80.9867 535.853 80.9585 535.853 80.9304 535.853C80.9057 535.853 80.8811 535.853 80.8564 535.853C80.7923 535.887 80.7289 535.922 80.6663 535.959C80.6235 535.993 80.5812 536.029 80.5395 536.065C72.7212 540.536 63.574 542.1 54.7142 540.479C54.0156 540.309 53.2896 540.284 52.5808 540.405C51.872 540.525 51.1952 540.789 50.592 541.181C49.9888 541.572 49.4719 542.082 49.0729 542.68C48.6739 543.278 48.4012 543.952 48.2716 544.659C48.1419 545.367 48.1581 546.093 48.319 546.793C48.4799 547.494 48.7822 548.155 49.2074 548.735C49.6326 549.315 50.1717 549.801 50.7917 550.165C51.4117 550.529 52.0995 550.763 52.813 550.852C57.236 551.615 61.7439 551.758 66.2062 551.275C65.1292 553.272 64.2246 555.356 63.5022 557.507C63.2355 558.175 63.1081 558.889 63.1277 559.608C63.1474 560.327 63.3137 561.036 63.6164 561.688C63.9191 562.341 64.3519 562.924 64.8882 563.403C65.4246 563.882 66.0531 564.247 66.7354 564.474C67.4176 564.702 68.1392 564.788 68.8558 564.727C69.5724 564.666 70.269 564.459 70.9029 564.119C71.5367 563.779 72.0945 563.314 72.5419 562.751C72.9893 562.188 73.317 561.538 73.5049 560.844C75.6815 554.322 80.0774 548.772 85.9264 545.158C85.9475 545.159 85.9687 545.159 85.9898 545.158H86.0532C86.5052 544.89 86.9146 544.555 87.2678 544.166C87.3558 544.074 87.4403 543.979 87.5213 543.881C88.3024 542.879 88.6961 541.628 88.6301 540.359C88.5641 539.091 88.043 537.889 87.1622 536.974C87.0841 536.886 87.0031 536.801 86.9193 536.72C86.8708 536.676 86.8215 536.635 86.7714 536.593C86.7644 536.593 86.7573 536.593 86.7503 536.593C86.3533 536.255 85.9083 535.977 85.43 535.769C85.3292 535.724 85.2271 535.681 85.1237 535.642C85.061 535.605 84.9976 535.57 84.9335 535.536C84.923 535.536 84.9124 535.536 84.9018 535.536C84.7455 535.486 84.5869 535.444 84.4265 535.41C84.3151 535.371 84.2024 535.335 84.0885 535.304C83.9074 535.259 83.7241 535.224 83.5393 535.198C83.49 535.197 83.4407 535.197 83.3914 535.198V535.273ZM169.898 535.273C169.439 535.295 168.984 535.376 168.546 535.515C168.532 535.515 168.518 535.515 168.504 535.515C167.846 535.726 167.236 536.063 166.708 536.508C166.701 536.508 166.694 536.508 166.687 536.508C166.041 537.058 165.537 537.755 165.218 538.54C164.898 539.326 164.772 540.177 164.851 541.021C164.93 541.865 165.211 542.679 165.67 543.392C166.129 544.105 166.754 544.697 167.49 545.117C173.373 548.73 177.788 554.285 179.975 560.833C180.167 561.524 180.497 562.169 180.946 562.727C181.395 563.286 181.953 563.748 182.585 564.084C183.218 564.42 183.913 564.624 184.627 564.683C185.341 564.743 186.06 564.656 186.74 564.428C187.419 564.201 188.046 563.838 188.58 563.36C189.115 562.883 189.547 562.302 189.85 561.652C190.153 561.003 190.32 560.298 190.342 559.581C190.364 558.865 190.24 558.152 189.978 557.485C189.255 555.334 188.351 553.25 187.274 551.253C191.71 551.676 196.209 551.666 200.667 550.852C201.369 550.75 202.043 550.507 202.65 550.138C203.256 549.769 203.782 549.282 204.195 548.706C204.609 548.129 204.902 547.474 205.058 546.782C205.213 546.089 205.227 545.373 205.099 544.675C204.971 543.977 204.704 543.311 204.314 542.719C203.923 542.127 203.417 541.62 202.826 541.227C202.235 540.835 201.57 540.564 200.873 540.434C200.175 540.304 199.459 540.316 198.766 540.469C189.904 542.096 180.757 540.469 172.94 536.054C172.919 536.054 172.898 536.054 172.877 536.054C172.867 536.049 172.856 536.045 172.845 536.045C172.834 536.045 172.823 536.049 172.814 536.054C172.751 536.018 172.687 535.982 172.623 535.949C172.585 535.913 172.546 535.877 172.507 535.843C172.493 535.843 172.479 535.843 172.465 535.843C171.998 535.612 171.5 535.452 170.986 535.367C170.691 535.306 170.39 535.271 170.088 535.261C170.039 535.261 169.99 535.261 169.941 535.261C169.926 535.261 169.912 535.261 169.898 535.261V535.273ZM109.301 561.224C107.904 561.246 106.573 561.821 105.599 562.823C104.625 563.825 104.088 565.173 104.104 566.57C104.104 573.287 98.7704 578.642 92.0315 578.642C90.6309 578.642 89.2876 579.199 88.2971 580.189C87.3067 581.18 86.7503 582.523 86.7503 583.923C86.7503 585.324 87.3067 586.667 88.2971 587.657C89.2876 588.648 90.6309 589.205 92.0315 589.205C98.0288 589.185 103.775 586.793 108.016 582.553C112.256 578.312 114.647 572.567 114.667 566.57C114.676 565.864 114.542 565.163 114.276 564.509C114.009 563.856 113.613 563.262 113.113 562.764C112.613 562.265 112.018 561.873 111.363 561.608C110.708 561.344 110.007 561.213 109.301 561.224ZM143.661 561.224C142.324 561.331 141.078 561.944 140.175 562.936C139.273 563.929 138.782 565.228 138.802 566.57C138.822 572.569 141.214 578.316 145.457 582.557C149.7 586.798 155.449 589.188 161.448 589.205C162.849 589.205 164.192 588.648 165.183 587.657C166.173 586.667 166.73 585.324 166.73 583.923C166.73 582.523 166.173 581.18 165.183 580.189C164.192 579.199 162.849 578.642 161.448 578.642C159.86 578.652 158.286 578.347 156.817 577.743C155.347 577.14 154.013 576.25 152.89 575.127C151.767 574.004 150.878 572.67 150.274 571.201C149.671 569.732 149.366 568.158 149.375 566.57C149.392 565.173 148.855 563.825 147.881 562.823C146.907 561.821 145.576 561.246 144.179 561.224C144.003 561.215 143.837 561.215 143.661 561.224Z" fill="#FDFDFD"/>
<path d="M55 269L42.0139 280.461L58.4327 285.977L55 269ZM49.279 281.32L10.5781 396.522L13.4219 397.478L52.1229 282.275L49.279 281.32Z" fill="white"/>
<path d="M202 269L198.077 285.87L214.649 280.833L202 269ZM204.491 282.353L238.565 394.436L241.435 393.564L207.362 281.48L204.491 282.353Z" fill="white"/>
<path d="M128 259L119.485 274.083L136.805 273.915L128 259ZM130.479 359.986L129.631 272.485L126.631 272.514L127.479 360.015L130.479 359.986Z" fill="white"/>
<defs>
<clipPath id="clip0_5_6350">
<rect width="238" height="238" fill="white" transform="translate(8)"/>
</clipPath>
</defs>
</svg>
